<svg xmlns="http://www.w3.org/2000/svg" width="290.968" height="65.022" viewBox="0 0 290.968 65.022">
  <g id="Group_10" data-name="Group 10" transform="translate(-120.864 -38.924)">
    <g id="Group_9" data-name="Group 9" transform="translate(120.864 38.924)">
      <g id="Group_8" data-name="Group 8">
        <path id="Path_527" data-name="Path 527" d="M120.954,95.534c.318-1.946,2.972-16.626,2.972-16.626,1.59,2.115,3.07,4.041,3.5,4.569a3.29,3.29,0,0,0,4.53.063l12.906-10.969-13.946-17a10.353,10.353,0,0,1,8.462-16.648h43.58c-2.921,2.485-11.808,10.081-13.621,11.584a6.4,6.4,0,0,1-4.3,1.411h-12.3a1.628,1.628,0,0,0-1.182,2.764l21.388,25.893a1.628,1.628,0,0,0,2.822-.812l2.146-12.183a6.2,6.2,0,0,1,2.186-4.115c2.134-1.814,9.749-8.3,13.573-11.547L186,95.423c-1.678,8.826-12.959,11.191-18.117,5l-13.529-16.35s-19.324,16.508-21.322,18.124a7.414,7.414,0,0,1-12.08-6.664" transform="translate(-120.864 -38.924)" fill="#f20017"/>
      </g>
    </g>
    <path id="Path_528" data-name="Path 528" d="M379.258,42.6s-12.239.876-13.423.949a2.469,2.469,0,0,0-2.22,2.033l-.327,1.85h15.117ZM240.914,72.543l3.227-18.329a3.914,3.914,0,0,0-3.949-4.8l-15.95.055L215.106,101.3h6.929l3.323-18.845,2.591-.6L229.02,101.3h7.032l-1.4-21.517A9.1,9.1,0,0,0,240.914,72.543Zm-7.03.636a1.292,1.292,0,0,1-.9,1.069l-6.463,1.631,3.547-20.123,6.143.029a.6.6,0,0,1,.611.74Zm-54.13-23.712a5.971,5.971,0,0,0-5.64,4.8l-8.28,47.031h6.89l3.323-18.845,7.283-1.6-3.6,20.444h6.822l9.137-51.832ZM184.485,74.3l-7.277,1.6,3.418-19.444a.921.921,0,0,1,.87-.742h6.262Zm37.106-24.833H214.78L203.421,74.211l4.361-24.744h-6.9L191.748,101.3h6.9l3.713-21.062,3.283,21.062h6.815l-3.663-23.8Zm154.293,0-11.21,0a5.963,5.963,0,0,0-5.631,4.792L351.6,96.494a3.939,3.939,0,0,0,3.932,4.845h11.206a5.963,5.963,0,0,0,5.633-4.8l2.485-14.088h-6.81L365.928,94.38a.923.923,0,0,1-.872.74h-5.515a.607.607,0,0,1-.611-.74L365.6,56.518a.928.928,0,0,1,.87-.74h5.517a.606.606,0,0,1,.611.74l-1.844,10.471h6.837l2.23-12.727A3.908,3.908,0,0,0,375.884,49.467Zm-122.208,0a5.967,5.967,0,0,0-5.638,4.8L239.756,101.3h6.892l3.318-18.833,7.287-1.6-3.6,20.436h6.822l9.137-51.832ZM258.408,74.3l-7.277,1.6L254.55,56.46a.921.921,0,0,1,.872-.742h6.262Zm78.848-24.833L327.04,87.539l3.218-38.072h-6.9L320.6,101.3h8.039l15.429-51.832Zm10.649,0L338.768,101.3h6.9l9.137-51.832Zm-53.354,4.816a3.923,3.923,0,0,0-3.959-4.816H274.668L265.529,101.3h6.926l3.321-18.845,9.118-2.572a9.3,9.3,0,0,0,6.432-7.277ZM284.34,73.068a1.4,1.4,0,0,1-.942,1.122l-6.459,1.69,3.533-20.2h6.211a.6.6,0,0,1,.609.744Zm31.006-23.6-11.208,0a5.964,5.964,0,0,0-5.633,4.792l-7.446,42.231a3.94,3.94,0,0,0,3.933,4.843H306.2a5.962,5.962,0,0,0,5.633-4.8l7.453-42.279A3.908,3.908,0,0,0,315.346,49.467ZM305.392,94.38a.926.926,0,0,1-.87.74h-5.515a.606.606,0,0,1-.611-.74l6.692-38.024a.921.921,0,0,1,.869-.739h5.519a.6.6,0,0,1,.607.739Z" transform="translate(31.933 2.608)" fill-rule="evenodd"/>
  </g>
</svg>
