<svg id="Group_64" data-name="Group 64" xmlns="http://www.w3.org/2000/svg" width="171.03" height="171.03" viewBox="0 0 171.03 171.03">
  <path id="Path_578" data-name="Path 578" d="M-1223.069,450.094h-30.961a2.481,2.481,0,0,0-2.477,2.485,2.48,2.48,0,0,0,2.477,2.484h30.961a2.48,2.48,0,0,0,2.476-2.484A2.48,2.48,0,0,0-1223.069,450.094Z" transform="translate(1338.986 -309.728)" fill="#fff"/>
  <path id="Path_579" data-name="Path 579" d="M-1187.409,377.949h-10.847l-4.715-12.294h3.448a17.645,17.645,0,0,0,17.6-17.653,17.645,17.645,0,0,0-17.6-17.652H-1275.9l-3.122-36.6a8.483,8.483,0,0,0-8.485-7.794h-47.342a8.483,8.483,0,0,0-8.484,7.8l-3.3,38.669-6.25,24.867a2.444,2.444,0,0,0-.015.3,2.4,2.4,0,0,0-.061.3v2.337a7.273,7.273,0,0,0,7.253,7.276h42.923l-4,10.441h-10.837a5.323,5.323,0,0,0-4.268,2.119,5.367,5.367,0,0,0-.907,4.686l1.022,3.738a5.379,5.379,0,0,0,5.174,3.958h4.255l-1.516,3.952a59.494,59.494,0,0,0-3.958,21.381v17.063a10.254,10.254,0,0,0,1.714,5.676v8.7a7.754,7.754,0,0,0,7.731,7.758h11.777a7.754,7.754,0,0,0,7.731-7.758v-4.081h72.694v4.081a7.755,7.755,0,0,0,7.732,7.758h11.776a7.754,7.754,0,0,0,7.731-7.758v-8.7a10.253,10.253,0,0,0,1.715-5.677V417.784a59.492,59.492,0,0,0-3.959-21.381l-1.516-3.952h4.266a5.383,5.383,0,0,0,5.175-3.96l1.018-3.734a5.352,5.352,0,0,0-.906-4.688A5.32,5.32,0,0,0-1187.409,377.949Zm.528-29.947a12.677,12.677,0,0,1-12.643,12.684h-5.98a21.869,21.869,0,0,0-18.1-9.814h-47.487L-1275,335.32h75.473A12.677,12.677,0,0,1-1186.88,348ZM-1338.4,294.18a3.548,3.548,0,0,1,3.551-3.259h47.342a3.547,3.547,0,0,1,3.551,3.253l3.086,36.176h-60.616Zm-3.853,41.14h62.151l5.049,20.091H-1347.3ZM-1348,360.379h73.645a2.306,2.306,0,0,1-2.3,2.159H-1345.7A2.308,2.308,0,0,1-1348,360.379Zm41.573,30.48h0l.158-.411,8.8-22.939h20.82a7.271,7.271,0,0,0,7.252-7.276v-2.337a2.358,2.358,0,0,0-.061-.3,2.3,2.3,0,0,0-.015-.305l-.364-1.447h46.238a16.932,16.932,0,0,1,15.708,10.824l10.931,28.5a484.153,484.153,0,0,1-111.119,0Zm-10.175-3.378a.412.412,0,0,1-.4-.3l-1.02-3.737.4-.524h8.931l-.382,1-1.367,3.566Zm22.782,61.743a2.786,2.786,0,0,1-2.778,2.789h-11.777a2.786,2.786,0,0,1-2.778-2.789v-4.74c.281.107.581.162.871.244.261.073.51.166.779.218a10.1,10.1,0,0,0,1.948.2h13.735Zm99.934,0a2.786,2.786,0,0,1-2.778,2.789h-11.776a2.787,2.787,0,0,1-2.779-2.789v-4.081h13.737a10.086,10.086,0,0,0,1.947-.2c.27-.052.523-.146.785-.22.288-.081.585-.136.865-.242Zm1.714-31.44v17.063a5.266,5.266,0,0,1-1.366,3.482,5.487,5.487,0,0,1-.459.465,5.272,5.272,0,0,1-1.307.884c-.11.052-.23.08-.344.124a5.214,5.214,0,0,1-1.835.372h-110.072a5.207,5.207,0,0,1-1.837-.373c-.113-.043-.232-.071-.342-.122a5.308,5.308,0,0,1-1.3-.883,5.357,5.357,0,0,1-.468-.476,5.261,5.261,0,0,1-1.361-3.474V417.784a54.437,54.437,0,0,1,3.034-17.805,489.146,489.146,0,0,0,57.313,3.395,489.14,489.14,0,0,0,57.314-3.395A54.46,54.46,0,0,1-1192.172,417.784Zm4.142-30.608a.417.417,0,0,1-.4.305h-6.16l-1.751-4.564h8.93l.4.524Z" transform="translate(1352.957 -285.952)" fill="#fff"/>
  <path id="Path_580" data-name="Path 580" d="M-1287.743,425.993a8.444,8.444,0,0,0-8.42,8.45,8.443,8.443,0,0,0,8.42,8.448,8.443,8.443,0,0,0,8.421-8.448A8.445,8.445,0,0,0-1287.743,425.993Zm0,11.928a3.477,3.477,0,0,1-3.467-3.479,3.477,3.477,0,0,1,3.467-3.48,3.478,3.478,0,0,1,3.468,3.48A3.478,3.478,0,0,1-1287.743,437.922Z" transform="translate(1344.73 -306.237)" fill="#fff"/>
  <path id="Path_581" data-name="Path 581" d="M-1186.124,425.993a8.444,8.444,0,0,0-8.42,8.45,8.443,8.443,0,0,0,8.42,8.448,8.443,8.443,0,0,0,8.421-8.448A8.445,8.445,0,0,0-1186.124,425.993Zm0,11.928a3.476,3.476,0,0,1-3.467-3.479,3.477,3.477,0,0,1,3.467-3.48,3.477,3.477,0,0,1,3.467,3.48A3.477,3.477,0,0,1-1186.124,437.922Z" transform="translate(1330.011 -306.237)" fill="#fff"/>
  <path id="Path_582" data-name="Path 582" d="M-1334.869,353.021h4.746a2.453,2.453,0,0,0,2.319-1.7,2.453,2.453,0,0,0,2.319,1.7h4.744a2.452,2.452,0,0,0,2.32-1.706,2.451,2.451,0,0,0,2.32,1.706h4.744a2.45,2.45,0,0,0,2.32-1.706,2.452,2.452,0,0,0,2.32,1.706h4.744a2.451,2.451,0,0,0,2.319-1.706,2.452,2.452,0,0,0,2.32,1.706h4.744a2.452,2.452,0,0,0,2.32-1.706,2.451,2.451,0,0,0,2.319,1.706h4.744a2.48,2.48,0,0,0,2.476-2.485,2.48,2.48,0,0,0-2.476-2.484h-4.744a2.451,2.451,0,0,0-2.319,1.706,2.452,2.452,0,0,0-2.32-1.706h-4.744a2.452,2.452,0,0,0-2.32,1.706,2.451,2.451,0,0,0-2.319-1.706h-4.744a2.452,2.452,0,0,0-2.32,1.706,2.45,2.45,0,0,0-2.32-1.706h-4.744a2.451,2.451,0,0,0-2.32,1.706,2.452,2.452,0,0,0-2.32-1.706h-4.744a2.452,2.452,0,0,0-2.319,1.7,2.452,2.452,0,0,0-2.319-1.7h-4.746a2.48,2.48,0,0,0-2.477,2.484A2.481,2.481,0,0,0-1334.869,353.021Z" transform="translate(1350.696 -294.947)" fill="#fff"/>
  <path id="Path_583" data-name="Path 583" d="M-1333.662,357.492h-5.458a2.48,2.48,0,0,0-2.476,2.485,2.48,2.48,0,0,0,2.476,2.484h5.458a2.481,2.481,0,0,0,2.477-2.484A2.481,2.481,0,0,0-1333.662,357.492Z" transform="translate(1351.312 -296.315)" fill="#fff"/>
  <path id="Path_584" data-name="Path 584" d="M-1321.04,357.492h-5.458a2.481,2.481,0,0,0-2.477,2.485,2.481,2.481,0,0,0,2.477,2.484h5.458a2.48,2.48,0,0,0,2.476-2.484A2.48,2.48,0,0,0-1321.04,357.492Z" transform="translate(1349.483 -296.315)" fill="#fff"/>
  <path id="Path_585" data-name="Path 585" d="M-1308.417,357.492h-5.458a2.481,2.481,0,0,0-2.476,2.485,2.481,2.481,0,0,0,2.476,2.484h5.458a2.481,2.481,0,0,0,2.477-2.484A2.481,2.481,0,0,0-1308.417,357.492Z" transform="translate(1347.655 -296.315)" fill="#fff"/>
  <path id="Path_586" data-name="Path 586" d="M-1295.795,357.492h-5.458a2.48,2.48,0,0,0-2.477,2.485,2.48,2.48,0,0,0,2.477,2.484h5.458a2.48,2.48,0,0,0,2.476-2.484A2.48,2.48,0,0,0-1295.795,357.492Z" transform="translate(1345.826 -296.315)" fill="#fff"/>
  <path id="Path_587" data-name="Path 587" d="M-1283.172,357.492h-5.458a2.481,2.481,0,0,0-2.476,2.485,2.481,2.481,0,0,0,2.476,2.484h5.458a2.48,2.48,0,0,0,2.476-2.484A2.48,2.48,0,0,0-1283.172,357.492Z" transform="translate(1343.998 -296.315)" fill="#fff"/>
  <path id="Path_588" data-name="Path 588" d="M-1270.552,357.492h-5.456a2.48,2.48,0,0,0-2.476,2.485,2.48,2.48,0,0,0,2.476,2.484h5.456a2.48,2.48,0,0,0,2.476-2.484A2.48,2.48,0,0,0-1270.552,357.492Z" transform="translate(1342.17 -296.315)" fill="#fff"/>
</svg>
