<svg xmlns="http://www.w3.org/2000/svg" width="134.837" height="171.03" viewBox="0 0 134.837 171.03">
  <g id="Group_63" data-name="Group 63" transform="translate(0)">
    <path id="Path_572" data-name="Path 572" d="M-1686.161,330.5l-4.03-33.7a2.474,2.474,0,0,0-1.195-1.836l-14.552-8.659a2.472,2.472,0,0,0-2.612.048,2.476,2.476,0,0,0-1.119,2.361l3.187,27.955V318.9l-7.748,13.371-14.689-.026-7.454-12.958-.213-2.386,3.2-28.191a2.484,2.484,0,0,0-1.13-2.369,2.48,2.48,0,0,0-2.621-.029l-14.579,8.867a2.482,2.482,0,0,0-1.173,1.824l-4.02,33.6.02,0a2.735,2.735,0,0,0-.055.3,2.416,2.416,0,0,0,0,.577c.236,12.359,8.5,23.2,21.267,28.088l-.1,83.226a14.081,14.081,0,0,0,4.146,10.032,14.073,14.073,0,0,0,10.021,4.153h0a14.2,14.2,0,0,0,14.166-14.2c.008-31.217.014-38.253.023-38.977,0-.049,0-.1,0-.147V359.57c12.691-4.884,21.144-16.059,21.267-28.624h.021A2.561,2.561,0,0,0-1686.161,330.5Zm-24.5,24.977a2.477,2.477,0,0,0-1.7,2.353v45.838h.083c-.092,1.092-.095,2.654-.1,4.887l-.014,34.237a9.234,9.234,0,0,1-9.209,9.238h0a9.139,9.139,0,0,1-6.514-2.7,9.149,9.149,0,0,1-2.7-6.52l.1-84.975a2.478,2.478,0,0,0-1.7-2.357c-11.768-3.9-19.449-13.419-19.573-24.262l0-.014,3.876-32.407,9.227-5.611-2.659,23.414a2.364,2.364,0,0,0-.006.5l.283,3.179a2.472,2.472,0,0,0,.32,1.017l8.439,14.672a2.478,2.478,0,0,0,2.146,1.243l17.551.03h0a2.48,2.48,0,0,0,2.146-1.236l8.8-15.185a2.5,2.5,0,0,0,.334-1.243l-.015-3.179-2.64-23.271,9.212,5.482,3.888,32.455C-1691.129,341.8-1698.993,351.609-1710.663,355.472Zm21.806-24.493.011,0h.248Z" transform="translate(1820.954 -285.952)" fill="#fff"/>
    <path id="Path_573" data-name="Path 573" d="M-1712.431,448.335h-8.491a2.478,2.478,0,0,0-2.479,2.478,2.478,2.478,0,0,0,2.479,2.478h8.491a2.478,2.478,0,0,0,2.478-2.478A2.478,2.478,0,0,0-1712.431,448.335Z" transform="translate(1816.094 -309.473)" fill="#fff"/>
    <path id="Path_574" data-name="Path 574" d="M-1712.431,457.987h-8.491a2.479,2.479,0,0,0-2.479,2.479,2.478,2.478,0,0,0,2.479,2.478h8.491a2.478,2.478,0,0,0,2.478-2.478A2.478,2.478,0,0,0-1712.431,457.987Z" transform="translate(1816.094 -310.871)" fill="#fff"/>
    <path id="Path_575" data-name="Path 575" d="M-1787.363,361.576h-7.99v-35.1l5.656-15.613a2.468,2.468,0,0,0,.079-1.425l-5.2-21.581a2.476,2.476,0,0,0-2.409-1.9h-15.435a2.478,2.478,0,0,0-2.409,1.9l-5.2,21.581a2.477,2.477,0,0,0,.08,1.425l5.656,15.613v35.1h-7.989a9.283,9.283,0,0,0-9.273,9.273,9.283,9.283,0,0,0,9.273,9.273h2.642l-1.516,4.87a77.433,77.433,0,0,0-3.511,23.057v35.084a12.884,12.884,0,0,0,9.841,12.643,43.541,43.541,0,0,0,10.123,1.2,43.529,43.529,0,0,0,10.123-1.2,12.884,12.884,0,0,0,9.84-12.643V408.049a77.427,77.427,0,0,0-3.509-23.057l-1.517-4.87h2.642a9.283,9.283,0,0,0,9.273-9.273A9.283,9.283,0,0,0-1787.363,361.576Zm-22.361-36.384-5.55-15.321,4.567-18.958h11.531l4.566,18.958-5.55,15.321a2.473,2.473,0,0,0-.149.844v35.54h-9.266v-35.54A2.47,2.47,0,0,0-1809.724,325.192Zm19.787,82.857v35.084a8.044,8.044,0,0,1-6.033,7.821,38.346,38.346,0,0,1-17.946,0,8.045,8.045,0,0,1-6.034-7.821V408.049a72.472,72.472,0,0,1,3.285-21.581l1.978-6.346h19.489l1.977,6.346A72.46,72.46,0,0,1-1789.937,408.049Zm2.574-32.883h-35.159a4.321,4.321,0,0,1-4.316-4.317,4.321,4.321,0,0,1,4.316-4.316h35.159a4.321,4.321,0,0,1,4.316,4.316A4.321,4.321,0,0,1-1787.363,375.166Z" transform="translate(1831.795 -285.953)" fill="#fff"/>
    <path id="Path_576" data-name="Path 576" d="M-1807.669,410.162a2.478,2.478,0,0,0-2.479,2.479v47.545a2.479,2.479,0,0,0,2.479,2.479,2.479,2.479,0,0,0,2.478-2.479V412.641A2.479,2.479,0,0,0-1807.669,410.162Z" transform="translate(1828.659 -303.944)" fill="#fff"/>
    <path id="Path_577" data-name="Path 577" d="M-1793.959,410.162a2.478,2.478,0,0,0-2.478,2.479v47.545a2.478,2.478,0,0,0,2.478,2.479,2.478,2.478,0,0,0,2.478-2.479V412.641A2.478,2.478,0,0,0-1793.959,410.162Z" transform="translate(1826.673 -303.944)" fill="#fff"/>
  </g>
</svg>
