<svg xmlns="http://www.w3.org/2000/svg" width="153.39" height="153.39" viewBox="0 0 153.39 153.39">
  <g id="Group_67" data-name="Group 67" transform="translate(1352.957 114.048)">
    <g id="Group_57" data-name="Group 57" transform="translate(-1352.957 -114.048)">
      <path id="Path_608" data-name="Path 608" d="M-1201.792-3.517h-6.314a7.911,7.911,0,0,0,.857-3.532V-16.7a10.714,10.714,0,0,0,1.875-6.061V-41.41a64.7,64.7,0,0,0-.85-10.139c0-.02.01-.036.01-.056a2.075,2.075,0,0,0-.06-.3,64.514,64.514,0,0,0-3.4-12.693l-1.913-4.981h5.373a5.4,5.4,0,0,0,5.195-3.971l1.114-4.08a5.364,5.364,0,0,0-.909-4.7,5.346,5.346,0,0,0-4.284-2.127h-12.2l-5.6-14.594a23.493,23.493,0,0,0-21.794-15h-63.283a23.5,23.5,0,0,0-21.8,15l-5.6,14.594h-12.19a5.346,5.346,0,0,0-4.284,2.127,5.365,5.365,0,0,0-.91,4.7l1.117,4.084a5.4,5.4,0,0,0,5.193,3.969h5.363L-1343-64.6a64.5,64.5,0,0,0-3.395,12.665,2.129,2.129,0,0,0-.066.328c0,.021.011.04.012.061a64.716,64.716,0,0,0-.85,10.134v18.648a10.718,10.718,0,0,0,1.873,6.06v9.654a7.91,7.91,0,0,0,.858,3.532h-6.162a2.227,2.227,0,0,0-2.225,2.23v38.4a2.227,2.227,0,0,0,2.225,2.229h15.737a2.227,2.227,0,0,0,2.225-2.229V18.687h36.358a2.227,2.227,0,0,0,2.225-2.23V-1.287a2.227,2.227,0,0,0-2.225-2.23h-21.039a7.9,7.9,0,0,0,.857-3.532v-4.945h80.51v4.945a7.9,7.9,0,0,0,.858,3.532h-20.888a2.227,2.227,0,0,0-2.225,2.23V16.458a2.227,2.227,0,0,0,2.225,2.23h36.358V37.113a2.227,2.227,0,0,0,2.225,2.229h15.737a2.227,2.227,0,0,0,2.225-2.229v-38.4A2.227,2.227,0,0,0-1201.792-3.517ZM-1205.1-80a.919.919,0,0,1,.745.371.922.922,0,0,1,.156.817l-1.114,4.08a.941.941,0,0,1-.9.692h-7.074l-2.289-5.96Zm-120.526-17.45a19.015,19.015,0,0,1,17.642-12.141h63.283a19.015,19.015,0,0,1,17.641,12.141l12.188,31.741a530.871,530.871,0,0,1-122.941,0Zm-20.832,23.41a.937.937,0,0,1-.9-.689l-1.118-4.084a.924.924,0,0,1,.159-.815.918.918,0,0,1,.745-.371h10.478l-.541,1.408-1.749,4.552Zm47.818,88.267h-36.359a2.226,2.226,0,0,0-2.224,2.23V34.884h-11.289V.942h49.872Zm-38.823-17.745a3.532,3.532,0,0,1-3.52-3.532v-5.911c.022.01.047.013.068.023a10.637,10.637,0,0,0,1.726.579c.133.035.257.093.391.122a10.7,10.7,0,0,0,2.237.242h15.513v4.945a3.532,3.532,0,0,1-3.518,3.532Zm127.635-32.825v13.581a6.252,6.252,0,0,1-1.348,3.855c-.013.015-.031.025-.044.041a6.431,6.431,0,0,1-2.126,1.737c-.036.018-.069.041-.106.058a6.167,6.167,0,0,1-1.115.4c-.068.018-.131.047-.2.062a6.13,6.13,0,0,1-1.359.157h-120.435a6.078,6.078,0,0,1-1.358-.157c-.071-.015-.135-.045-.2-.063a6.229,6.229,0,0,1-1.108-.4c-.041-.02-.078-.045-.12-.066a6.307,6.307,0,0,1-1.1-.7l-.009-.008a6.531,6.531,0,0,1-1.008-1.019c-.009-.012-.023-.018-.032-.03a6.26,6.26,0,0,1-1.358-3.868v-13.58l1.342-17.493a60.1,60.1,0,0,1,2.126-7.556,535.542,535.542,0,0,0,63.047,3.748,535.513,535.513,0,0,0,63.045-3.748,59.813,59.813,0,0,1,2.126,7.556Zm-21.81,29.294v-4.945h15.513a10.664,10.664,0,0,0,2.238-.242c.129-.028.248-.085.376-.118a10.647,10.647,0,0,0,1.743-.584c.021-.009.044-.012.064-.021v5.911a3.532,3.532,0,0,1-3.518,3.532h-12.9A3.532,3.532,0,0,1-1231.632-7.048Zm27.616,41.932H-1215.3V16.458a2.227,2.227,0,0,0-2.225-2.23h-36.358V.942h49.871Z" transform="translate(1352.957 114.048)" fill="#fff"/>
      <path id="Path_609" data-name="Path 609" d="M-1241.94-.454h-33.874a2.227,2.227,0,0,0-2.224,2.23A2.226,2.226,0,0,0-1275.814,4h33.874a2.226,2.226,0,0,0,2.224-2.229A2.227,2.227,0,0,0-1241.94-.454Z" transform="translate(1335.497 87.575)" fill="#fff"/>
    </g>
    <ellipse id="Ellipse_1" data-name="Ellipse 1" cx="7.177" cy="8.612" rx="7.177" ry="8.612" transform="translate(-1334.564 -52.279)" fill="#fff"/>
    <ellipse id="Ellipse_2" data-name="Ellipse 2" cx="7.177" cy="8.612" rx="7.177" ry="8.612" transform="translate(-1229.274 -51.266)" fill="#fff"/>
  </g>
</svg>
