<svg xmlns="http://www.w3.org/2000/svg" width="283.008" height="92.467" viewBox="0 0 283.008 92.467">
  <g id="Group_36" data-name="Group 36" transform="translate(-144.595 -685.209)">
    <path id="Path_537" data-name="Path 537" d="M523.946,700.642l8,15.811h6.276v-.018l8-15.811v15.829H551.8V688.518h-5.7L535.087,710.25l-11.012-21.733h-5.7v27.935h5.571Z" transform="translate(-181.71 -1.608)" fill="#fff"/>
    <path id="Path_538" data-name="Path 538" d="M354.691,749.652H336.218v5.588h17.549q4.619,0,4.619,2.793t-4.619,2.793H336.218v16.728h5.5l.032-11.14h12.943q9.236,0,9.237-8.381T354.691,749.652Z" transform="translate(-93.156 -31.328)" fill="#fff"/>
    <path id="Path_539" data-name="Path 539" d="M471.976,758.033q0-2.794-4.631-2.793H455.317v5.586h12.029Q471.977,760.826,471.976,758.033Zm-13.966,8.381h-2.694v11.108l-5.568.045V749.652h18.523q9.262,0,9.262,8.381t-9.262,8.381H466.55l13.04,11.173H471.05Z" transform="translate(-148.348 -31.328)" fill="#fff"/>
    <path id="Path_540" data-name="Path 540" d="M455.36,820.1v9.312q0,9.312,9.312,9.312h18.622v-5.587H465.454q-4.508,0-4.507-4.489v-7.8q0-4.47,4.488-4.469h17.859v-5.587H464.672Q455.359,810.787,455.36,820.1Z" transform="translate(-151.076 -61.049)" fill="#fff"/>
    <rect id="Rectangle_81" data-name="Rectangle 81" width="5.587" height="27.935" transform="translate(336.328 749.738)" fill="#fff"/>
    <path id="Path_541" data-name="Path 541" d="M559.4,830.247l-16.342-19.461H537.46v27.935h5.484V819.26l16.36,19.461h5.575V810.786H559.4Z" transform="translate(-190.988 -61.048)" fill="#fff"/>
    <path id="Path_542" data-name="Path 542" d="M600.254,820.1v9.312q0,9.311,9.087,9.311h18.172v-14.9h-5.451v9.312H610.1q-4.4,0-4.4-4.489v-7.8q0-4.471,4.38-4.47h17.427v-5.587H609.341Q600.254,810.787,600.254,820.1Z" transform="translate(-221.515 -61.049)" fill="#fff"/>
    <rect id="Rectangle_82" data-name="Rectangle 82" width="27.242" height="5.718" transform="translate(242.98 686.733)" fill="#fff"/>
    <rect id="Rectangle_83" data-name="Rectangle 83" width="5.59" height="18.504" transform="translate(253.646 696.307)" fill="#fff"/>
    <path id="Path_543" data-name="Path 543" d="M425.338,710.739H403.365v-5.59h21.878v-5.638H403.365v-5.445H425.29s.072-5.807,0-5.735H397.968v28h27.37Z" transform="translate(-123.175 -1.518)" fill="#fff"/>
    <path id="Path_544" data-name="Path 544" d="M461.2,716.453h-6.09l12.123-27.934H473.3l12.123,27.934h-6.072l-2.443-5.623H463.638Zm4.863-11.212h8.422l-4.215-9.7Z" transform="translate(-150.954 -1.609)" fill="#fff"/>
    <path id="Path_545" data-name="Path 545" d="M406.236,766.374l-4.162-9.7-4.154,9.7Zm-7.159-16.722h5.994l11.969,27.935h-5.994l-2.4-5.591H395.514l-2.394,5.591h-6.012Z" transform="translate(-117.896 -31.328)" fill="#fff"/>
    <path id="Path_546" data-name="Path 546" d="M517.986,764.954l13.947,12.558h8.344l-15.513-13.967,15.513-13.968h-8.344l-13.947,12.558V749.5h-5.525v27.981h5.525Z" transform="translate(-178.835 -31.254)" fill="#fff"/>
    <path id="Path_547" data-name="Path 547" d="M574.51,777.518h27.37v-5.59H579.907v-5.59h21.878V760.7H579.907v-5.445h21.926s.072-5.807,0-5.735H574.51Z" transform="translate(-209 -31.265)" fill="#fff"/>
    <path id="Path_548" data-name="Path 548" d="M659.5,758.033q0-2.794-4.631-2.793H642.843v5.586h12.029Q659.5,760.826,659.5,758.033Zm7.613,19.554h-8.539l-13.04-11.173h-2.694v11.108l-5.568.045V749.652H655.8q9.262,0,9.262,8.381t-9.262,8.381h-1.723Z" transform="translate(-239.512 -31.328)" fill="#fff"/>
    <path id="Path_549" data-name="Path 549" d="M388.272,827.509h8.315l-4.162-9.7Zm7.151-16.722,11.969,27.934H401.4l-2.4-5.591H385.865l-2.394,5.591H369.047l-8.624-6.9,8.422-.025,8.623,6.9,11.96-27.914Z" transform="translate(-104.923 -61.049)" fill="#fff"/>
    <path id="Path_550" data-name="Path 550" d="M235.537,691.676v78.278a6.487,6.487,0,0,1-6.467,6.467H151.062a6.486,6.486,0,0,1-6.467-6.467V727.581l33.682-17.852c6.013-3.147,9.759-2.646,11.991,1.617s-.454,8.574-6.467,11.721l-27.08,14.146L174.5,773.995l16.815-9.119-9.674-21.2,11.722-6.467c16.3-9.026,22.23-24.386,14.281-37.319-7.558-12.3-21.287-14.146-40.823-3.638l-22.23,11.9V691.676a6.486,6.486,0,0,1,6.467-6.467H229.07A6.486,6.486,0,0,1,235.537,691.676Zm-1.393,51.241L206.75,732.5c-7.006,7.275-18.862,12.574-18.862,12.574l22.814,10.6Z" fill="#fff"/>
    <path id="Path_551" data-name="Path 551" d="M363.928,819.238q0-8.381-9.237-8.381H336.218v5.587h17.549q4.619,0,4.619,2.794t-4.619,2.793H336.218v16.727h5.5l.032-11.14h12.943Q363.928,827.618,363.928,819.238Z" transform="translate(-93.156 -61.083)" fill="#fff"/>
  </g>
</svg>
