<svg xmlns="http://www.w3.org/2000/svg" width="160.252" height="166.32" viewBox="0 0 160.252 166.32">
  <path id="Path_618" data-name="Path 618" d="M-696.043-68.877a32.692,32.692,0,0,0,2.393-12.26,32.948,32.948,0,0,0-32.911-32.911,32.953,32.953,0,0,0-29.153,17.8,41.253,41.253,0,0,0-36.953,18.024L-848.9,5.015a2.407,2.407,0,0,0-.369,1.805,2.408,2.408,0,0,0,1.018,1.54l64.4,43.5a2.4,2.4,0,0,0,1.346.412,2.407,2.407,0,0,0,2-1.062l47.76-70.7v1.9a2.409,2.409,0,0,0,.731,1.729l6.821,6.631-4.884,4.747a2.41,2.41,0,0,0-.73,1.728,2.41,2.41,0,0,0,.73,1.728l4.884,4.747-4.884,4.747a2.41,2.41,0,0,0-.73,1.728,2.41,2.41,0,0,0,.73,1.728l4.76,4.626-6.576,5.578a2.406,2.406,0,0,0-.85,1.753,2.412,2.412,0,0,0,.725,1.81l10.139,9.9a2.4,2.4,0,0,0,1.683.685,2.4,2.4,0,0,0,1.681-.684l10.141-9.879a2.409,2.409,0,0,0,.728-1.726V-20.794A31.3,31.3,0,0,0-689.056-49.26,30.98,30.98,0,0,0-696.043-68.877Zm-30.518-40.351A28.123,28.123,0,0,1-698.47-81.137a27.965,27.965,0,0,1-1.3,8.433A30.971,30.971,0,0,0-720.194-80.4a31.1,31.1,0,0,0-5.359.495,40.935,40.935,0,0,0-9.818-9.425,41.035,41.035,0,0,0-15.2-6.3A28.144,28.144,0,0,1-726.561-109.228ZM-783.148,46.517l-60.405-40.8,54.881-81.247a36.479,36.479,0,0,1,50.6-9.8,35.975,35.975,0,0,1,7.463,6.742c-.157.056-.3.131-.46.19-.7.26-1.378.537-2.048.845-.285.131-.565.269-.847.408-.632.314-1.252.644-1.859,1-.282.165-.559.335-.835.508q-.9.566-1.766,1.19c-.242.176-.481.355-.718.538q-.9.7-1.751,1.454c-.1.092-.215.17-.316.263a19.062,19.062,0,0,0-3.218-2.758,19.891,19.891,0,0,0-15.047-3.071,19.927,19.927,0,0,0-12.812,8.469,19.933,19.933,0,0,0-3.07,15.047A19.931,19.931,0,0,0-766.885-41.7a19.794,19.794,0,0,0,17.29,2.434c.1.291.226.569.333.857a31.124,31.124,0,0,0,1.493,3.376c.289.559.6,1.1.917,1.643.4.677.826,1.336,1.28,1.981s.943,1.295,1.454,1.912c.4.484.81.952,1.238,1.412s.9.913,1.371,1.354a30.838,30.838,0,0,0,2.469,2.107c.278.212.557.419.842.622.6.432,1.188.879,1.824,1.268Zm32.331-90.464a15.022,15.022,0,0,1-13.372-1.745,15.261,15.261,0,0,1-4.1-21.168,15.144,15.144,0,0,1,9.734-6.434l.018,0a33.049,33.049,0,0,0,8.5,15.2,30.983,30.983,0,0,0-1.3,8.836A30.472,30.472,0,0,0-750.817-43.947Zm2.743-19.089A28.59,28.59,0,0,1-753.5-73.364a15.124,15.124,0,0,1,6.378,2.406,14.342,14.342,0,0,1,2.586,2.337A31.15,31.15,0,0,0-748.074-63.036Zm37.168,38.373a2.407,2.407,0,0,0-1.558,2.254V22.963l-7.728,7.529-6.564-6.407,6.582-5.582a2.407,2.407,0,0,0,.849-1.757,2.412,2.412,0,0,0-.728-1.809l-4.884-4.747,4.884-4.747a2.409,2.409,0,0,0,.731-1.728,2.411,2.411,0,0,0-.731-1.728l-4.884-4.747,4.884-4.747a2.411,2.411,0,0,0,.731-1.728,2.411,2.411,0,0,0-.731-1.728l-7.87-7.65v-3.8a2.407,2.407,0,0,0-1.557-2.254,25.677,25.677,0,0,1-2.33-1.094,26.512,26.512,0,0,1-2.487-1.4c-.042-.027-.082-.057-.125-.084a26.208,26.208,0,0,1-5.858-5.186c-.24-.286-.475-.574-.7-.869-.441-.573-.871-1.154-1.263-1.762-.148-.229-.273-.472-.414-.7a26.13,26.13,0,0,1-2.116-4.351c-.026-.071-.057-.138-.084-.209a26.2,26.2,0,0,1-.8-2.642,25.773,25.773,0,0,1-.852-6.29,26.186,26.186,0,0,1,7-17.807,26.4,26.4,0,0,1,5.929-4.807c.1-.06.2-.123.3-.182A26.1,26.1,0,0,1-729.9-73.7c.06-.024.121-.043.181-.067a26.142,26.142,0,0,1,3.659-1.129,26.242,26.242,0,0,1,5.867-.683A26.224,26.224,0,0,1-701.748-68a28.278,28.278,0,0,1-8.8,9.911,13.051,13.051,0,0,0-9.649-4.3A13.143,13.143,0,0,0-733.322-49.26a13.143,13.143,0,0,0,13.129,13.128A13.143,13.143,0,0,0-707.065-49.26,13.008,13.008,0,0,0-707.983-54a33.14,33.14,0,0,0,9.517-10.088,26.165,26.165,0,0,1,4.59,14.824A26.445,26.445,0,0,1-710.906-24.663Zm-.98-24.6a8.319,8.319,0,0,1-8.308,8.309,8.292,8.292,0,0,1-8.21-7.327c.615.035,1.23.052,1.842.052a32.659,32.659,0,0,0,14.316-3.322A8.206,8.206,0,0,1-711.885-49.26Zm-16.617,0a8.2,8.2,0,0,1,.112-1.114,7.817,7.817,0,0,0-.046,1.769C-728.454-48.825-728.5-49.035-728.5-49.26Zm1.941-3.786c-.324,0-.65-.007-.975-.018a8.286,8.286,0,0,1,7.343-4.5,8.226,8.226,0,0,1,5.291,1.957A27.875,27.875,0,0,1-726.561-53.046Zm-1.788,2.274a8.143,8.143,0,0,1,.7-2.091A8.93,8.93,0,0,0-728.349-50.771Z" transform="translate(849.308 114.048)" fill="#fff"/>
</svg>
