<svg xmlns="http://www.w3.org/2000/svg" width="171.03" height="171.03" viewBox="0 0 171.03 171.03">
  <g id="Group_61" data-name="Group 61" transform="translate(0 0)">
    <path id="Path_552" data-name="Path 552" d="M-274.266,798.366h24.233a2.478,2.478,0,0,0,2.478-2.478,2.478,2.478,0,0,0-2.478-2.478h-24.233a2.478,2.478,0,0,0-2.478,2.478A2.478,2.478,0,0,0-274.266,798.366Z" transform="translate(341.918 -701.517)" fill="#fff"/>
    <path id="Path_553" data-name="Path 553" d="M-226.985,798.366a2.478,2.478,0,0,0,2.478-2.478,2.479,2.479,0,0,0-2.478-2.478h-11a2.479,2.479,0,0,0-2.478,2.478,2.478,2.478,0,0,0,2.478,2.478Z" transform="translate(336.662 -701.517)" fill="#fff"/>
    <path id="Path_554" data-name="Path 554" d="M-232.062,850.364h-42.2a2.478,2.478,0,0,0-2.478,2.478,2.478,2.478,0,0,0,2.478,2.478h42.2a2.478,2.478,0,0,0,2.478-2.478A2.478,2.478,0,0,0-232.062,850.364Z" transform="translate(341.918 -709.767)" fill="#fff"/>
    <path id="Path_555" data-name="Path 555" d="M-229.067,838.944h-24.522a2.478,2.478,0,0,0-2.478,2.478,2.478,2.478,0,0,0,2.478,2.478h24.522a2.478,2.478,0,0,0,2.478-2.478A2.478,2.478,0,0,0-229.067,838.944Z" transform="translate(338.922 -708.113)" fill="#fff"/>
    <path id="Path_556" data-name="Path 556" d="M-274.266,843.574h10.644a2.478,2.478,0,0,0,2.478-2.478,2.478,2.478,0,0,0-2.478-2.478h-10.644a2.478,2.478,0,0,0-2.478,2.478A2.478,2.478,0,0,0-274.266,843.574Z" transform="translate(341.918 -708.066)" fill="#fff"/>
    <path id="Path_557" data-name="Path 557" d="M-274.266,727.889h24.233a2.478,2.478,0,0,0,2.478-2.478,2.478,2.478,0,0,0-2.478-2.478h-24.233a2.478,2.478,0,0,0-2.478,2.478A2.478,2.478,0,0,0-274.266,727.889Z" transform="translate(341.918 -691.309)" fill="#fff"/>
    <path id="Path_558" data-name="Path 558" d="M-237.981,727.889h11a2.478,2.478,0,0,0,2.478-2.478,2.478,2.478,0,0,0-2.478-2.478h-11a2.478,2.478,0,0,0-2.478,2.478A2.478,2.478,0,0,0-237.981,727.889Z" transform="translate(336.662 -691.309)" fill="#fff"/>
    <path id="Path_559" data-name="Path 559" d="M-232.062,779.887h-42.2a2.478,2.478,0,0,0-2.478,2.478,2.478,2.478,0,0,0,2.478,2.478h42.2a2.478,2.478,0,0,0,2.478-2.478A2.478,2.478,0,0,0-232.062,779.887Z" transform="translate(341.918 -699.559)" fill="#fff"/>
    <path id="Path_560" data-name="Path 560" d="M-229.067,735.98h-24.522a2.479,2.479,0,0,0-2.478,2.478,2.478,2.478,0,0,0,2.478,2.478h24.522a2.478,2.478,0,0,0,2.478-2.478A2.478,2.478,0,0,0-229.067,735.98Z" transform="translate(338.922 -693.199)" fill="#fff"/>
    <path id="Path_561" data-name="Path 561" d="M-274.266,740.613h10.644a2.478,2.478,0,0,0,2.478-2.478,2.478,2.478,0,0,0-2.478-2.478h-10.644a2.478,2.478,0,0,0-2.478,2.478A2.478,2.478,0,0,0-274.266,740.613Z" transform="translate(341.918 -693.152)" fill="#fff"/>
    <path id="Path_562" data-name="Path 562" d="M-230.1,685.952H-344.347a8.618,8.618,0,0,0-8.61,8.608V848.374a8.618,8.618,0,0,0,8.61,8.608H-230.1a8.617,8.617,0,0,0,8.608-8.608V694.56A8.617,8.617,0,0,0-230.1,685.952Zm3.651,162.422a3.655,3.655,0,0,1-3.651,3.651H-344.347A3.657,3.657,0,0,1-348,848.374V694.56a3.658,3.658,0,0,1,3.653-3.651H-230.1a3.656,3.656,0,0,1,3.651,3.651Z" transform="translate(352.957 -685.952)" fill="#fff"/>
    <path id="Path_563" data-name="Path 563" d="M-157.647,736.228a2.336,2.336,0,0,0-.054-.413l-11.137-32.7a2.583,2.583,0,0,0-4.693,0l-11.136,32.7a2.336,2.336,0,0,0-.054.413,2.347,2.347,0,0,0-.078.387V845.636a13.631,13.631,0,0,0,13.614,13.614,13.631,13.631,0,0,0,13.615-13.614V736.615A2.343,2.343,0,0,0-157.647,736.228ZM-172.808,828.5V739.093h2.973V828.5Zm-7.034,0V739.093h2.077V828.5Zm4.588-104.946a23.344,23.344,0,0,0,4.07.4,23.344,23.344,0,0,0,4.07-.4l3.6,10.583h-15.347Zm10.376,15.539h2.353V828.5h-2.353Zm-6.306-27.49,2.459,7.219a19.084,19.084,0,0,1-4.917,0Zm8.658,134.034a8.667,8.667,0,0,1-8.658,8.658,8.667,8.667,0,0,1-8.658-8.658v-12.18h17.316Z" transform="translate(328.599 -688.22)" fill="#fff"/>
    <path id="Path_564" data-name="Path 564" d="M-310.871,748.42a19.735,19.735,0,0,0,19.713-19.711,19.975,19.975,0,0,0-.369-3.82,2.477,2.477,0,0,0-2.907-1.957,2.476,2.476,0,0,0-1.957,2.906,15.073,15.073,0,0,1,.277,2.872,14.772,14.772,0,0,1-14.756,14.755,14.772,14.772,0,0,1-14.755-14.755,14.773,14.773,0,0,1,14.755-14.757,14.7,14.7,0,0,1,8.083,2.409,2.473,2.473,0,0,0,3.431-.712,2.477,2.477,0,0,0-.712-3.431,19.623,19.623,0,0,0-10.8-3.221,19.735,19.735,0,0,0-19.711,19.713A19.733,19.733,0,0,0-310.871,748.42Z" transform="translate(349.716 -689.29)" fill="#fff"/>
    <path id="Path_565" data-name="Path 565" d="M-293.041,713.46l-16.06,18.794-5.884-8.132a2.474,2.474,0,0,0-3.459-.555,2.477,2.477,0,0,0-.556,3.459l7.731,10.684a2.48,2.48,0,0,0,1.907,1.024c.035,0,.068,0,.1,0a2.472,2.472,0,0,0,1.884-.87l18.1-21.189a2.477,2.477,0,0,0-.272-3.492A2.479,2.479,0,0,0-293.041,713.46Z" transform="translate(348.106 -689.811)" fill="#fff"/>
    <path id="Path_566" data-name="Path 566" d="M-310.871,804.111A19.736,19.736,0,0,0-291.158,784.4a19.951,19.951,0,0,0-.369-3.817,2.471,2.471,0,0,0-2.907-1.957,2.475,2.475,0,0,0-1.957,2.906,15.055,15.055,0,0,1,.277,2.869,14.773,14.773,0,0,1-14.756,14.757A14.773,14.773,0,0,1-325.626,784.4a14.772,14.772,0,0,1,14.755-14.755,14.7,14.7,0,0,1,8.083,2.406,2.472,2.472,0,0,0,3.431-.712,2.476,2.476,0,0,0-.712-3.43,19.627,19.627,0,0,0-10.8-3.221A19.733,19.733,0,0,0-330.582,784.4,19.735,19.735,0,0,0-310.871,804.111Z" transform="translate(349.716 -697.357)" fill="#fff"/>
    <path id="Path_567" data-name="Path 567" d="M-293.041,769.149l-16.06,18.8-5.884-8.132a2.474,2.474,0,0,0-3.459-.556,2.479,2.479,0,0,0-.556,3.46l7.731,10.683a2.482,2.482,0,0,0,1.907,1.024c.035,0,.068,0,.1,0a2.474,2.474,0,0,0,1.884-.869l18.1-21.191a2.475,2.475,0,0,0-.275-3.492A2.474,2.474,0,0,0-293.041,769.149Z" transform="translate(348.106 -697.877)" fill="#fff"/>
    <path id="Path_568" data-name="Path 568" d="M-294.434,834.313a2.476,2.476,0,0,0-1.957,2.907,15.041,15.041,0,0,1,.277,2.869,14.774,14.774,0,0,1-14.756,14.757,14.774,14.774,0,0,1-14.755-14.757,14.772,14.772,0,0,1,14.755-14.755,14.7,14.7,0,0,1,8.083,2.406,2.475,2.475,0,0,0,3.431-.713,2.476,2.476,0,0,0-.712-3.43,19.633,19.633,0,0,0-10.8-3.22,19.733,19.733,0,0,0-19.711,19.711A19.735,19.735,0,0,0-310.871,859.8a19.737,19.737,0,0,0,19.713-19.714,19.965,19.965,0,0,0-.369-3.818A2.478,2.478,0,0,0-294.434,834.313Z" transform="translate(349.716 -705.424)" fill="#fff"/>
    <path id="Path_569" data-name="Path 569" d="M-293.041,824.839l-16.06,18.8-5.884-8.134a2.474,2.474,0,0,0-3.459-.555A2.477,2.477,0,0,0-319,838.4l7.731,10.686a2.481,2.481,0,0,0,1.907,1.024h.1a2.472,2.472,0,0,0,1.884-.869l18.1-21.191a2.475,2.475,0,0,0-.275-3.492A2.474,2.474,0,0,0-293.041,824.839Z" transform="translate(348.106 -705.944)" fill="#fff"/>
  </g>
</svg>
