<svg xmlns="http://www.w3.org/2000/svg" width="221.858" height="197.006" viewBox="0 0 221.858 197.006">
  <g id="Group_68" data-name="Group 68" transform="translate(1717.128 145.042)">
    <path id="Path_610" data-name="Path 610" d="M-1604.246-106.817l1.579-3.094,7.462,3.809a1.906,1.906,0,0,0,2.565-.831l11.942-23.393a1.907,1.907,0,0,0-.831-2.566l-23.394-11.941a1.906,1.906,0,0,0-2.565.831l-11.941,23.393a1.907,1.907,0,0,0,.831,2.566l7.461,3.809-1.579,3.094A42.382,42.382,0,0,0-1665.3-90.765l-50.938,99.787a8.184,8.184,0,0,0,3.565,11l60.828,31.051a8.183,8.183,0,0,0,11-3.564l50.938-99.787A42.382,42.382,0,0,0-1604.246-106.817Zm-.712-33.752,20,10.207-10.207,20-20-10.207ZM-1644.24,45.773a4.368,4.368,0,0,1-5.868,1.9l-60.828-31.051a4.368,4.368,0,0,1-1.9-5.868l50.938-99.787a38.553,38.553,0,0,1,51.807-16.79A38.552,38.552,0,0,1-1593.3-54.014Z" fill="#fff"/>
    <path id="Path_611" data-name="Path 611" d="M-1609.838-53.283l-42.955-21.927a1.906,1.906,0,0,0-2.565.831l-33.559,65.743a1.906,1.906,0,0,0,.831,2.565l42.954,21.927a1.907,1.907,0,0,0,2.566-.831l33.559-65.743A1.906,1.906,0,0,0-1609.838-53.283ZM-1645.1,11.593-1684.654-8.6l31.826-62.346,39.558,20.193Z" fill="#fff"/>
    <path id="Path_612" data-name="Path 612" d="M-1576.022-114.051l18.755,9.574a2.86,2.86,0,0,0,3.848-1.247,2.86,2.86,0,0,0-1.247-3.848l-18.755-9.574a2.861,2.861,0,0,0-3.848,1.247A2.86,2.86,0,0,0-1576.022-114.051Z" fill="#fff"/>
    <path id="Path_613" data-name="Path 613" d="M-1569.793-103.66a2.86,2.86,0,0,0,1.247,3.848l18.755,9.574a2.86,2.86,0,0,0,3.848-1.247,2.86,2.86,0,0,0-1.247-3.848l-18.755-9.574A2.861,2.861,0,0,0-1569.793-103.66Z" fill="#fff"/>
    <path id="Path_614" data-name="Path 614" d="M-1560.551-88.265a2.86,2.86,0,0,0-1.248-3.848l-18.754-9.574a2.86,2.86,0,0,0-3.848,1.247,2.859,2.859,0,0,0,1.247,3.848l18.755,9.574A2.861,2.861,0,0,0-1560.551-88.265Z" fill="#fff"/>
    <path id="Path_615" data-name="Path 615" d="M-1498.429-69.545a28.964,28.964,0,0,0-9.841-37.3,20.1,20.1,0,0,0-10.4-22.232,20.009,20.009,0,0,0-26.888,8.714,3.814,3.814,0,0,0,1.663,5.131,3.813,3.813,0,0,0,5.13-1.663,12.374,12.374,0,0,1,16.627-5.388,12.4,12.4,0,0,1,5.8,15.734,3.812,3.812,0,0,0,1.787,4.862l.045.024a21.319,21.319,0,0,1,9.285,28.649,21.389,21.389,0,0,1-17.82,11.587,3.813,3.813,0,0,0-3.55,3.173,8.9,8.9,0,0,1-.853,2.566,8.964,8.964,0,0,1-12.046,3.9c-.116-.059-.233-.121-.343-.186a3.8,3.8,0,0,0-5.027,1.044,12.282,12.282,0,0,1-15.6,3.725,12.373,12.373,0,0,1-5.388-16.626,3.815,3.815,0,0,0-1.663-5.131,3.815,3.815,0,0,0-5.131,1.663,20.01,20.01,0,0,0,8.714,26.888,19.866,19.866,0,0,0,23.206-3.641,16.609,16.609,0,0,0,20.077-8.172,16.814,16.814,0,0,0,.819-1.882A29.053,29.053,0,0,0-1498.429-69.545Z" fill="#fff"/>
  </g>
</svg>
