<svg xmlns="http://www.w3.org/2000/svg" width="171.03" height="145.497" viewBox="0 0 171.03 145.497">
  <path id="Path_589" data-name="Path 589" d="M-1189.895,754.77a7.975,7.975,0,0,0-7.965,7.965v18.841h-4.571V757.248a2.478,2.478,0,0,0-2.478-2.478h-26.811a5.524,5.524,0,0,1-4.522-2.354l-11.435-16.308a10.488,10.488,0,0,0-8.581-4.465h-26.21v-8.019h20.681a11.385,11.385,0,0,0,11.373-11.371,11.385,11.385,0,0,0-11.373-11.373h-59.3a11.385,11.385,0,0,0-11.37,11.373,11.385,11.385,0,0,0,11.37,11.371h20.684v8.019h-29.576a2.479,2.479,0,0,0-2.478,2.478v34.351h-2.979V734.122a2.479,2.479,0,0,0-2.478-2.478,15.064,15.064,0,0,0-15.045,15.047v61.515a15.063,15.063,0,0,0,15.045,15.047,2.478,2.478,0,0,0,2.478-2.478v-34.35h2.979v34.35a2.478,2.478,0,0,0,2.478,2.478h14.434l13.084,18.663a10.494,10.494,0,0,0,8.581,4.462h36.822a10.5,10.5,0,0,0,8.582-4.462l13.083-18.663h30.483a2.478,2.478,0,0,0,2.478-2.478V796.446h4.571v18.84a7.975,7.975,0,0,0,7.965,7.967,7.976,7.976,0,0,0,7.968-7.967V762.735A7.976,7.976,0,0,0-1189.895,754.77Zm-150.5,16.18v47.039a10.11,10.11,0,0,1-7.611-9.784V746.69a10.107,10.107,0,0,1,7.611-9.782Zm19.306-52.282a6.421,6.421,0,0,1-6.414-6.415,6.423,6.423,0,0,1,6.414-6.416h59.3a6.425,6.425,0,0,1,6.416,6.416,6.423,6.423,0,0,1-6.416,6.415h-59.3Zm25.64,4.956h8.02v8.019h-8.02Zm-39.989,57.844v-8.04h2.979v8.04Zm82.9,57.6a5.529,5.529,0,0,1-4.523,2.352h-36.822a5.531,5.531,0,0,1-4.523-2.352l-11.089-15.816h68.044Zm45.146-20.772H-1327.5V736.6h71.24a5.53,5.53,0,0,1,4.523,2.355l11.434,16.308a10.49,10.49,0,0,0,8.581,4.464h24.333V818.3Zm9.527-26.806h-4.571v-4.958h4.571Zm10.976,23.8a3.015,3.015,0,0,1-3.011,3.01,3.013,3.013,0,0,1-3.008-3.01V762.735a3.012,3.012,0,0,1,3.008-3.008,3.014,3.014,0,0,1,3.011,3.008Z" transform="translate(1352.957 -700.881)" fill="#fff"/>
</svg>
