<svg id="Group_62" data-name="Group 62" xmlns="http://www.w3.org/2000/svg" width="114.787" height="171.03" viewBox="0 0 114.787 171.03">
  <path id="Path_570" data-name="Path 570" d="M-302.924,441.609a2.478,2.478,0,0,0-2.479,2.478v7.852a2.479,2.479,0,0,0,2.479,2.478,2.478,2.478,0,0,0,2.478-2.478v-7.852A2.478,2.478,0,0,0-302.924,441.609Z" transform="translate(317.947 -308.499)" fill="#fff"/>
  <path id="Path_571" data-name="Path 571" d="M-206.427,379.474a10.125,10.125,0,0,0,.654-7.778,10.128,10.128,0,0,0-5.039-5.96l-8.721-4.506a23.591,23.591,0,0,0-8.294-2.463l-.05-13.872c10.09-4.023,16.764-13.026,16.786-22.929a2.474,2.474,0,0,0-.035-.416l-3.179-26.581a2.476,2.476,0,0,0-1.192-1.836l-11.481-6.831a2.474,2.474,0,0,0-2.613.048,2.48,2.48,0,0,0-1.118,2.361l2.512,21.99v1.622l-5.89,10.163-10.981-.019-5.67-9.857-.151-1.715,2.519-22.184a2.484,2.484,0,0,0-1.129-2.369,2.476,2.476,0,0,0-2.622-.028l-11.5,6.993a2.488,2.488,0,0,0-1.173,1.824l-3.127,26.15a2.524,2.524,0,0,0-.069.585,2.54,2.54,0,0,0,0,.552c.2,9.849,6.7,18.5,16.772,22.482l-.009,13.829a30.193,30.193,0,0,0-11.021,2.831l-13.959,6.676a37.965,37.965,0,0,1-13.812,3.556v-2.3a7.317,7.317,0,0,0-7.308-7.308h-15.435a7.316,7.316,0,0,0-7.306,7.308v63.832a7.315,7.315,0,0,0,7.306,7.307h15.435a7.316,7.316,0,0,0,7.308-7.307v-4.336h6.592c10.186,5.621,16.149,6.111,24,6.111q1.206,0,2.478-.009l1.735-.007a9.1,9.1,0,0,0,3.922,2.366l-.006,7.825a11.618,11.618,0,0,0,3.421,8.281,11.611,11.611,0,0,0,8.274,3.431h0a11.739,11.739,0,0,0,11.7-11.715l.014-7.617a9.07,9.07,0,0,0,7.108-8.84,8.99,8.99,0,0,0-1.438-4.861,9.068,9.068,0,0,0,5.458-8.306,8.966,8.966,0,0,0-1.3-4.614,9.042,9.042,0,0,0,6.194-8.553,8.973,8.973,0,0,0-1.315-4.633,9.043,9.043,0,0,0,6.139-8.535,9.014,9.014,0,0,0-2.535-6.256A10.085,10.085,0,0,0-206.427,379.474Zm-88.553,53.845a2.354,2.354,0,0,1-2.351,2.35h-15.435a2.353,2.353,0,0,1-2.35-2.35V369.487a2.354,2.354,0,0,1,2.35-2.351h15.435a2.354,2.354,0,0,1,2.351,2.351ZM-263.041,322.2l3.025-25.288,6.149-3.74-1.977,17.407a2.4,2.4,0,0,0-.005.5l.221,2.507a2.468,2.468,0,0,0,.32,1.018l6.656,11.574a2.484,2.484,0,0,0,2.146,1.243l13.843.023a2.8,2.8,0,0,0,2.147-1.236l6.941-11.978a2.481,2.481,0,0,0,.335-1.243l-.016-2.567-1.963-17.306,6.139,3.654L-216.049,322c-.017,8.272-6.08,15.833-15.089,18.813a2.477,2.477,0,0,0-1.7,2.362l.055,15.444h-13.492l.013-15.452a2.478,2.478,0,0,0-1.7-2.354C-257.016,337.817-262.927,330.516-263.041,322.2Zm23.44,129.821h0a6.7,6.7,0,0,1-4.767-1.977,6.7,6.7,0,0,1-1.972-4.773l.006-7.4h13.492l-.013,7.381A6.773,6.773,0,0,1-239.6,452.025Zm9.76-19.107H-248.7a4.11,4.11,0,0,1-4.1-4.107,4.109,4.109,0,0,1,4.1-4.1h18.854a4.109,4.109,0,0,1,4.1,4.1A4.11,4.11,0,0,1-229.841,432.918ZM-244,379.014h14.452l2.391,1.233h-7.8a9.071,9.071,0,0,0-9.062,9.062,8.962,8.962,0,0,0,1.315,4.631,9.167,9.167,0,0,0-3.6,2.3l.009-12.224A32.435,32.435,0,0,0-244,379.014Zm18.181,40.736h-18.854a4.11,4.11,0,0,1-4.1-4.106,4.109,4.109,0,0,1,4.1-4.1h18.854a4.11,4.11,0,0,1,4.106,4.1A4.111,4.111,0,0,1-225.822,419.75Zm4.89-13.167h-18.853a4.111,4.111,0,0,1-4.106-4.106,4.11,4.11,0,0,1,4.106-4.106h18.853a4.109,4.109,0,0,1,4.1,4.106A4.11,4.11,0,0,1-220.932,406.583Zm4.823-13.169h-18.853a4.11,4.11,0,0,1-4.106-4.1,4.11,4.11,0,0,1,4.106-4.1h18.853a4.109,4.109,0,0,1,4.1,4.1A4.109,4.109,0,0,1-216.109,393.414Zm5.278-16.213a5.251,5.251,0,0,1-7.061,2.252l-9.92-5.12a2.482,2.482,0,0,0-1.137-.277H-245.8a2.477,2.477,0,0,0-2.377,1.778A27.368,27.368,0,0,1-259.868,391.3a27.361,27.361,0,0,1-19.014,3.8,2.487,2.487,0,0,0-2.848,2.043A2.478,2.478,0,0,0-279.687,400a32.668,32.668,0,0,0,5.3.434,32.261,32.261,0,0,0,17.153-4.928,32.054,32.054,0,0,0,5.976-4.995l-.015,18.99a8.918,8.918,0,0,0-2.465,6.146,8.987,8.987,0,0,0,1.44,4.861,9.069,9.069,0,0,0-5.459,8.306,8.843,8.843,0,0,0,.133,1.32c-8.7.053-13.759-.058-23.95-5.786a2.482,2.482,0,0,0-1.214-.318h-7.235V376.749a42.951,42.951,0,0,0,15.949-4.041l13.959-6.676a25.261,25.261,0,0,1,10.833-2.457H-230.3a18.6,18.6,0,0,1,8.49,2.06l8.722,4.5A5.21,5.21,0,0,1-210.5,373.2,5.21,5.21,0,0,1-210.831,377.2Z" transform="translate(320.072 -285.952)" fill="#fff"/>
</svg>
