<svg xmlns="http://www.w3.org/2000/svg" width="171.03" height="171.03" viewBox="0 0 171.03 171.03">
  <g id="Group_66" data-name="Group 66" transform="translate(0)">
    <path id="Path_603" data-name="Path 603" d="M-267.442-114.048a85.611,85.611,0,0,0-85.515,85.515,85.611,85.611,0,0,0,85.515,85.515,85.611,85.611,0,0,0,85.515-85.515A85.612,85.612,0,0,0-267.442-114.048Zm0,166.073A80.65,80.65,0,0,1-348-28.533a80.65,80.65,0,0,1,80.558-80.559,80.65,80.65,0,0,1,80.559,80.559A80.65,80.65,0,0,1-267.442,52.025Z" transform="translate(352.957 114.048)" fill="#fff"/>
    <path id="Path_604" data-name="Path 604" d="M-295.777,4.2c-4.083-9.641-16.962-14.65-36.174-14.151-.068,0-.124.038-.19.044-.048,0-.091-.021-.139-.017a2.479,2.479,0,0,0-2.252,2.686A69.8,69.8,0,0,0-312.2,38.069a2.424,2.424,0,0,0,.641.4c.047.022.086.064.135.084a2.494,2.494,0,0,0,.9.174c.088,0,.171-.044.258-.053a2.463,2.463,0,0,0,.706-.145,2.391,2.391,0,0,0,.3-.205,2.362,2.362,0,0,0,.523-.357l.031-.035.006,0,.005-.008C-296.517,25.261-291.927,13.286-295.777,4.2Zm-14.828,28.442A64.724,64.724,0,0,1-329.231-4.979c15.39.017,25.872,3.989,28.888,11.111C-297.483,12.88-301.173,22.245-310.605,32.642Z" transform="translate(350.289 98.975)" fill="#fff"/>
    <path id="Path_605" data-name="Path 605" d="M-221.293,48.617c-.027-.051-.029-.109-.061-.16a2.531,2.531,0,0,0-.215-.224,2.432,2.432,0,0,0-.192-.268C-232.9,37.6-245.946,32.123-259.5,32.123c-13.6,0-26.691,5.517-37.855,15.955a2.335,2.335,0,0,0-.179.251,2.306,2.306,0,0,0-.223.233c-.034.054-.036.115-.066.171A2.368,2.368,0,0,0-298,49.2a2.456,2.456,0,0,0-.1.451,2.428,2.428,0,0,0,.015.466,2.385,2.385,0,0,0,.074.467,2.472,2.472,0,0,0,.182.416,2.393,2.393,0,0,0,.268.433c.039.048.051.105.093.151a2.167,2.167,0,0,0,.238.168,2.454,2.454,0,0,0,.245.235A69.935,69.935,0,0,0-259.5,62.671a69.84,69.84,0,0,0,37.373-10.795,2.36,2.36,0,0,0,.241-.23,2.4,2.4,0,0,0,.249-.178c.039-.044.051-.1.088-.145a2.428,2.428,0,0,0,.272-.442,2.5,2.5,0,0,0,.18-.409,2.381,2.381,0,0,0,.074-.467,2.4,2.4,0,0,0,.014-.469,2.413,2.413,0,0,0-.1-.439A2.43,2.43,0,0,0-221.293,48.617Zm-38.2,9.1A65.22,65.22,0,0,1-291.413,49.5c9.641-8.105,20.6-12.417,31.916-12.417,11.267,0,22.187,4.276,31.8,12.315A64.891,64.891,0,0,1-259.5,57.714Z" transform="translate(345.012 92.875)" fill="#fff"/>
    <path id="Path_606" data-name="Path 606" d="M-180.423-9.924c-.049,0-.091.018-.141.017-.066-.007-.122-.042-.19-.044C-200-10.445-212.842-5.442-216.926,4.2c-3.848,9.088.74,21.061,12.915,33.719l0,.007.005,0,.029.032a2.358,2.358,0,0,0,.512.351,2.525,2.525,0,0,0,.314.215,2.473,2.473,0,0,0,.459.094,2.543,2.543,0,0,0,.5.1,2.491,2.491,0,0,0,.908-.177,2.465,2.465,0,0,0,.77-.478A69.806,69.806,0,0,0-178.171-7.238,2.477,2.477,0,0,0-180.423-9.924ZM-202.1,32.642c-9.431-10.4-13.121-19.763-10.263-26.51,3.013-7.122,13.531-11.1,28.889-11.112A64.75,64.75,0,0,1-202.1,32.642Z" transform="translate(333.445 98.974)" fill="#fff"/>
    <path id="Path_607" data-name="Path 607" d="M-334.033-34.746a2.359,2.359,0,0,0,.143.463,2.343,2.343,0,0,0,.2.405,2.444,2.444,0,0,0,.306.376,2.368,2.368,0,0,0,.338.3,2.364,2.364,0,0,0,.445.239,2.433,2.433,0,0,0,.259.139q4.67,1.414,9.6,2.635c14.29,3.532,30.284,2.538,46.243-2.881a36.293,36.293,0,0,1,23.583,0,89.568,89.568,0,0,0,28.753,4.956,72.777,72.777,0,0,0,17.49-2.075q4.928-1.22,9.6-2.635a2.529,2.529,0,0,0,.256-.138,2.378,2.378,0,0,0,.453-.244,2.319,2.319,0,0,0,.327-.293,2.3,2.3,0,0,0,.317-.388,2.446,2.446,0,0,0,.191-.389,2.409,2.409,0,0,0,.148-.481,2.371,2.371,0,0,0,.028-.456,2.219,2.219,0,0,0,.021-.321A70.26,70.26,0,0,0-264.709-95.94a70.26,70.26,0,0,0-69.374,60.409,2.313,2.313,0,0,0,.02.309A2.373,2.373,0,0,0-334.033-34.746Zm69.324-56.237a65.26,65.26,0,0,1,64.072,54c-2.374.688-4.754,1.372-7.227,1.982-13.373,3.31-28.4,2.356-43.457-2.761a41.293,41.293,0,0,0-26.775,0c-15.058,5.116-30.085,6.074-43.459,2.761-2.472-.611-4.852-1.294-7.225-1.982A65.257,65.257,0,0,1-264.709-90.984Z" transform="translate(350.224 111.425)" fill="#fff"/>
  </g>
</svg>
