<svg xmlns="http://www.w3.org/2000/svg" width="161.162" height="219.328" viewBox="0 0 161.162 219.328">
  <g id="_49KvRn" data-name="49KvRn" transform="translate(2130.533 483.01)">
    <g id="Group_60" data-name="Group 60" transform="translate(-2130.533 -483.01)">
      <path id="Path_616" data-name="Path 616" d="M-2081.142-342.481c-10.424-10.322-11.5-22.536-6.993-35.135,3.856-10.778,9.052-21.085,13.842-31.514,3.913-8.522,8.14-16.9,12.155-25.377,2.2-4.636,5.013-8.443,10.426-8.714-.681-5.782-2.1-11.285-1.748-16.672s2.125-10.809,3.946-15.977c1.187-3.37,4.179-5.284,8.064-5.445,13.071-.544,26.134-1.408,39.209-1.69,7.2-.155,10.538,2.727,12.845,9.536a69.049,69.049,0,0,1,3.183,28.174c-.187,2.249.322,3.519,2.486,4.638a19.2,19.2,0,0,1,10.017,13.662c1.807,9.032,3.736,18.25,3.739,27.389,0,20.753-1.135,41.506-1.8,62.26a7.05,7.05,0,0,0,.149,2.7c4.88,12.371,1.5,22.874-7.119,32.253a51.377,51.377,0,0,0-3.78,4.588c-2.4,3.3-5.22,5.393-9.656,5-1.35-.12-3.169.961-4.2,2.041-4.279,4.5-8.354,9.2-12.476,13.852-10.048,11.335-22.774,14.918-37.327,12.516-22.057-3.641-43.776-8.714-64.811-16.425-5.746-2.107-11.14-4.733-15.169-9.681-3.8-4.673-5.588-9.926-3.488-15.517a315.361,315.361,0,0,1,12.556-29.88c3.841-7.711,11.15-10.752,19.661-9.766C-2092.1-345.044-2086.876-343.63-2081.142-342.481Zm29.273-51.433c16.983,1.185,33.829,2.4,50.686,3.417.958.057,2.608-1.409,2.937-2.474,2.228-7.2,5.782-13.294,12.649-16.991,6.779-3.649,6.778-3.657,5.552-11.411-.1-.65-.277-1.291-.414-1.936-2.182-10.236-7.859-15.1-18.38-15.664-5.8-.308-11.609-.811-17.4-.709-11.475.2-22.955.588-34.4,1.346a8.809,8.809,0,0,0-5.906,3.782,157.48,157.48,0,0,0-7.73,15.148c-.361.757-.4,2.275.088,2.738C-2057.675-410.438-2054.189-402.57-2051.869-393.914Zm52.084-84.027a20.811,20.811,0,0,0-3.533-.508q-18.8.835-37.6,1.77c-3.388.165-4.669,2.745-5.681,5.353-3.558,9.178-3.1,18.3.608,27.314h50.944C-2000.976-454.583-2000.087-466.142-1999.784-477.941Zm-56.678,145.25c-3.637-10.382-1.492-19.538.678-28.691,2.622-11.057,3.542-22.208,1.079-33.388a38.437,38.437,0,0,0-11.937-20.766c-.246,1.953-.8,3.213-.46,4.147,3.32,9.107.618,17.261-3.21,25.546a234.186,234.186,0,0,0-9.218,23.547c-1.609,4.779-2.536,10.581.587,14.614C-2073.518-340.674-2066.244-335.588-2056.462-332.691Zm6.642,56.035c10.6,3.992,19.783,1.98,27.669-5.919,5.316-5.324,10.765-10.529,15.849-16.069a93.592,93.592,0,0,0,17.9-28.625c-5.731,1.589-11.748,2.867-16.476,6.058-11.877,8.017-23.405,16.6-34.6,25.553C-2045.349-290.968-2048.689-284.228-2049.82-276.656Zm-73.1-37.065c8.935-.345,16.825-.4,24.672-1.023a180.409,180.409,0,0,0,23.063-2.863c6.439-1.358,11.946-5.007,16.39-10.872-11.313-4-21.993-8.169-32.93-11.5-7.329-2.23-15.284-2.389-20.087,4.86C-2116.261-328.408-2119.329-320.788-2122.925-313.721Zm138.04-18.2a403.976,403.976,0,0,0,6.074-70.564c-4.963,1.406-7.535,4.457-8.187,8.756a141.535,141.535,0,0,0-1.626,16.918c-.463,15.284.106,30.664-5.8,45.556Zm-18.732,3.985c4.971-.568,6.7-3.028,7.934-6.619,3.5-10.167,4.061-20.677,4.5-31.262.385-9.235.87-18.478,1.739-27.676a11.953,11.953,0,0,1,7.892-10.58c3.338-1.242,3.157-3.115,2.03-5.863-10.742,3.412-15.693,11.206-17.054,21.478-1.525,11.5-2.458,23.085-3.773,34.619C-2001.318-345.328-2002.487-336.836-2003.617-327.94Zm-104.638,43.017a4.525,4.525,0,0,0,.961.5,377.468,377.468,0,0,0,61.794,15.336c12.034,1.962,23.117-.137,31.593-9.467,7.536-8.3,14.643-17.012,21.478-25.9,2.763-3.591,4.562-8.019,6.288-12.275.894-2.2.668-4.862.949-7.315-1.237.179-1.576.415-1.731.738-8.313,17.4-21.072,31.232-35.218,43.944-4.872,4.379-10.548,7.453-17.149,7.1-9.454-.507-19-1.076-28.265-2.891C-2081.356-277.854-2094.939-281.668-2108.255-284.922Zm27.448,4.755,12.656,2.675c.835-12.39,7.991-19.831,17.554-25.29,6.261-3.574,12.884-6.513,19.848-9.987-1.641-.249-3-.856-4.125-.565-12.908,3.341-25.835,6.758-36.683,15.053A22.24,22.24,0,0,0-2080.808-280.167Zm39.894-34.315c-6.5-2.606-11.908.243-17.39,1.656-9.853,2.539-19.525,5.647-27.85,11.815-5.6,4.152-8.815,9.6-8.882,17.007l11.74,3.158c.6-9.611,5.317-16.6,13.063-21.254a140.921,140.921,0,0,1,17.036-8.217C-2049.383-311.959-2045.316-313.015-2040.914-314.482Zm17.645,3.33c-1.143-.371-1.432-.578-1.628-.511-11.661,3.971-23.078,8.463-32.462,16.794a22.978,22.978,0,0,0-8.231,18.116h13.262C-2049.4-293.678-2036.6-302.312-2023.269-311.153Zm-30.939-5.561-.088-1.216c-4.733.954-9.592,1.508-14.174,2.944-10.036,3.144-20.037,6.464-29.839,10.264-4.51,1.749-7.685,5.559-9.317,10.31-1.882,5.478-1.555,6.1,3.871,7.778,1.967.609,3.953,1.154,6.273,1.828.5-7.952,4-14.122,10.249-18.232a89.826,89.826,0,0,1,15.434-7.939C-2066.1-313.3-2060.084-314.835-2054.208-316.714Zm22.592-50.689c-1.231,6.792-2.85,13.338-3.487,19.977-.524,5.453-.011,11.027.36,16.526a4.18,4.18,0,0,0,2.547,2.849c2.055.6,4.313.506,6.776.726-3.3-13.607.826-26.155,2.808-39.083Zm10.73,1.225c-1.148,10.777-2.783,21.176-3.194,31.624-.3,7.6,2.686,9.372,9.85,7.668-2.989-12.99.921-25.513,3.049-38.5Zm-13.02-1.36a56.682,56.682,0,0,0-6.946-.662,3.09,3.09,0,0,0-2.374,1.739c-1.469,9.1-3.33,18.2-3.907,27.371-.549,8.718.68,9.425,9.366,10.269.1.009.205-.124.636-.4C-2039.759-341.948-2036.541-354.395-2033.906-367.537Zm-27.552,46.032c.213.171.393.434.616.478q19.227,3.725,38.466,7.388a3.266,3.266,0,0,0,2.271-.214c3.091-2.3,6.074-4.74,8.658-6.787-12.8-1.827-25.837-3.111-38.589-5.767C-2055.863-327.621-2058.745-325.715-2061.458-321.505Zm52.857-43.632c-.751,3.5-1.477,6.581-2.064,9.687-1.62,8.576-3.191,17.166-1.746,25.946.339,2.06.919,3.7,3.754,3.354,2.537-.308,3.358-1.384,3.329-3.823a57.4,57.4,0,0,1,.5-8.3c1.155-8.586,2.448-17.155,3.716-25.927Zm-60.289-44.036c-3.166,6.3-6.256,11.67-8.618,17.346a170.21,170.21,0,0,0-7.517,21.171c-1.439,5.37-1.388,11.084.964,15.525,2.389-7.464,4.671-15.391,7.491-23.12,1.8-4.934,4.574-9.5,6.594-14.369A24.848,24.848,0,0,0-2068.89-409.173Zm20.2,78.016c-2.671-12.939,1.276-25.048,3.333-37.694h-6.36c-1.145,5.069-2.355,9.917-3.315,14.813-1.225,6.244-1.859,12.489.218,18.753C-2053.857-332.4-2052.374-330.727-2048.687-331.157Zm-62.365,41.889c1.169-14.264,12.147-18.458,23.561-23.252a61.907,61.907,0,0,0-6.95.037c-7.242.937-14.328,2.565-20.245,7.131a12.034,12.034,0,0,0-4.237,12.106C-2118.582-291.543-2114.039-290.682-2111.052-289.268Zm136.643-113.758-.981.018c-1.891,22.878-3.784,45.756-5.662,68.474,4.537-1.345,4.772-1.475,4.956-6.592q.923-25.736,1.672-51.479C-1974.317-396.076-1974.408-399.553-1974.408-403.027Zm-55.885,33.348,8.635.78v-20.529l-8.635-.479Zm19.763,2.022v-20.957l-8.42-.472v20.511Zm-22.651-22.568a37.53,37.53,0,0,0-6.281-.269,3.305,3.305,0,0,0-2.3,2.215c-.2,5.758-.107,11.526-.107,17.442l8.684.812Zm42.633,92.4c10.034-2.174,20.287-24.906,14.91-33.625-1.951,1.782-6.819.568-5.575,5.424a19.3,19.3,0,0,1-1.445,13.463C-1985.03-307.581-1987.852-302.814-1990.549-297.824Zm-8.986-89.979-7.981-.412v20.723l6.947.866C-2000.221-373.763-1999.888-380.558-1999.535-387.8Zm8.012-55.346c2.663-10.88-.823-30.19-5.884-33.424C-1997.844-465.169-1998.691-453.853-1991.523-443.149Zm-53.089,52.054h-6.6v19.353l6.6.5Zm-64.516,79.329c-5.514.323-11.848-1.374-15.112,4.27-2.971,5.137-1.631,10.324,2.508,13.786C-2121.336-302.482-2117.436-308.621-2109.129-311.766Z" transform="translate(2130.533 483.01)" fill="#fff"/>
    </g>
  </g>
</svg>
